<svg width="219" height="179" viewBox="0 0 219 179" fill="none" xmlns="http://www.w3.org/2000/svg">
<path d="M54.099 178.12C43.7737 178.12 35.3257 176.008 28.755 171.784C22.1843 167.56 16.787 162.163 12.563 155.592C7.86967 147.613 4.58434 139.4 2.707 130.952C1.299 122.035 0.595002 114.76 0.595002 109.128C0.595002 86.1306 6.46167 65.2453 18.195 46.472C29.9283 27.6987 48.2323 12.4453 73.107 0.711956L79.443 13.384C64.8937 19.4853 52.2217 29.1066 41.427 42.248C31.1017 55.3893 25.939 68.7653 25.939 82.376C25.939 88.008 26.643 92.936 28.051 97.16C35.5603 91.0586 44.243 88.008 54.099 88.008C66.3017 88.008 76.8617 91.9973 85.779 99.976C94.6963 107.955 99.155 118.984 99.155 133.064C99.155 146.205 94.6963 157 85.779 165.448C76.8617 173.896 66.3017 178.12 54.099 178.12ZM173.779 178.12C163.454 178.12 155.006 176.008 148.435 171.784C141.864 167.56 136.467 162.163 132.243 155.592C127.55 147.613 124.264 139.4 122.387 130.952C120.979 122.035 120.275 114.76 120.275 109.128C120.275 86.1306 126.142 65.2453 137.875 46.472C149.608 27.6987 167.912 12.4453 192.787 0.711956L199.123 13.384C184.574 19.4853 171.902 29.1066 161.107 42.248C150.782 55.3893 145.619 68.7653 145.619 82.376C145.619 88.008 146.323 92.936 147.731 97.16C155.24 91.0586 163.923 88.008 173.779 88.008C185.982 88.008 196.542 91.9973 205.459 99.976C214.376 107.955 218.835 118.984 218.835 133.064C218.835 146.205 214.376 157 205.459 165.448C196.542 173.896 185.982 178.12 173.779 178.12Z" fill="#E1F4F2" fill-opacity="0.6"/>
</svg>
